<svg width="20" height="22" viewBox="0 0 20 22" fill="none" xmlns="http://www.w3.org/2000/svg">
<path d="M11.5701 20.0001C11.6627 19.7754 11.8024 19.5731 11.9798 19.407C12.1572 19.2408 12.3681 19.1146 12.5984 19.0369C12.8287 18.9592 13.073 18.9317 13.3148 18.9564C13.5566 18.9812 13.7903 19.0574 14.0001 19.1801C14.2869 19.3496 14.617 19.4317 14.9498 19.4162C15.2826 19.4007 15.6036 19.2883 15.8733 19.0928C16.1431 18.8974 16.35 18.6274 16.4684 18.316C16.5869 18.0047 16.6118 17.6655 16.5401 17.3401C16.4864 17.1028 16.484 16.8568 16.533 16.6185C16.582 16.3802 16.6813 16.1551 16.8242 15.9582C16.9671 15.7614 17.1504 15.5973 17.3618 15.4769C17.5732 15.3565 17.8079 15.2826 18.0501 15.2601C18.3906 15.2416 18.7177 15.1211 18.9888 14.9142C19.2599 14.7074 19.4626 14.4238 19.5704 14.1002C19.6783 13.7767 19.6863 13.4282 19.5935 13.1001C19.5007 12.7719 19.3114 12.4793 19.0501 12.2601C18.869 12.0997 18.724 11.9026 18.6247 11.682C18.5254 11.4613 18.474 11.2221 18.474 10.9801C18.474 10.7382 18.5254 10.4989 18.6247 10.2783C18.724 10.0576 18.869 9.86058 19.0501 9.70013C19.3114 9.48099 19.5007 9.18832 19.5935 8.86017C19.6863 8.53202 19.6783 8.18355 19.5704 7.86003C19.4626 7.53651 19.2599 7.2529 18.9888 7.04605C18.7177 6.8392 18.3906 6.71868 18.0501 6.70013C17.8079 6.67767 17.5732 6.60378 17.3618 6.48339C17.1504 6.36301 16.9671 6.19889 16.8242 6.00202C16.6813 5.80514 16.582 5.58004 16.533 5.34173C16.484 5.10343 16.4864 4.85742 16.5401 4.62013C16.602 4.29775 16.5698 3.96438 16.4473 3.65981C16.3249 3.35524 16.1173 3.09236 15.8495 2.90256C15.5817 2.71276 15.2649 2.60406 14.9369 2.58945C14.609 2.57483 14.2838 2.65491 14.0001 2.82013C13.7903 2.94282 13.5566 3.0191 13.3148 3.04381C13.073 3.06852 12.8287 3.0411 12.5984 2.96338C12.3681 2.88567 12.1572 2.75947 11.9798 2.59331C11.8024 2.42714 11.6627 2.22487 11.5701 2.00013C11.4378 1.69356 11.2186 1.43244 10.9396 1.24899C10.6606 1.06553 10.334 0.967773 10.0001 0.967773C9.66622 0.967773 9.33962 1.06553 9.06062 1.24899C8.78163 1.43244 8.56245 1.69356 8.43013 2.00013C8.33755 2.22487 8.19785 2.42714 8.02047 2.59331C7.84308 2.75947 7.63212 2.88567 7.40182 2.96338C7.17152 3.0411 6.92723 3.06852 6.68543 3.04381C6.44363 3.0191 6.20994 2.94282 6.00013 2.82013C5.71333 2.65063 5.38326 2.56859 5.05048 2.5841C4.7177 2.59961 4.3967 2.71199 4.12691 2.90742C3.85711 3.10286 3.65029 3.37285 3.53183 3.68423C3.41338 3.9956 3.38845 4.33479 3.46013 4.66013C3.51373 4.89366 3.51765 5.13584 3.47165 5.37099C3.42564 5.60613 3.33074 5.82898 3.19308 6.02509C3.05543 6.2212 2.8781 6.3862 2.67259 6.50938C2.46707 6.63256 2.23797 6.71117 2.00013 6.74013C1.65961 6.75868 1.33255 6.8792 1.06142 7.08605C0.790302 7.2929 0.587656 7.57651 0.479817 7.90003C0.371977 8.22355 0.363929 8.57202 0.456717 8.90017C0.549506 9.22832 0.738842 9.52099 1.00013 9.74013C1.18125 9.90058 1.32626 10.0976 1.42557 10.3183C1.52489 10.5389 1.57624 10.7782 1.57624 11.0201C1.57624 11.2621 1.52489 11.5013 1.42557 11.722C1.32626 11.9426 1.18125 12.1397 1.00013 12.3001C0.738842 12.5193 0.549506 12.8119 0.456717 13.1401C0.363929 13.4682 0.371977 13.8167 0.479817 14.1402C0.587656 14.4638 0.790302 14.7474 1.06142 14.9542C1.33255 15.1611 1.65961 15.2816 2.00013 15.3001C2.24237 15.3226 2.47704 15.3965 2.68845 15.5169C2.89986 15.6373 3.08315 15.8014 3.22607 15.9982C3.369 16.1951 3.46827 16.4202 3.51725 16.6585C3.56623 16.8968 3.56381 17.1428 3.51013 17.3801C3.45558 17.6956 3.4907 18.0201 3.61148 18.3166C3.73226 18.6131 3.93386 18.8697 4.19333 19.0573C4.45279 19.2449 4.75971 19.3558 5.07913 19.3775C5.39855 19.3992 5.71766 19.3308 6.00013 19.1801C6.20805 19.0566 6.43994 18.9789 6.68031 18.9521C6.92068 18.9254 7.16398 18.9502 7.39398 19.025C7.62399 19.0997 7.83539 19.2227 8.01406 19.3857C8.19274 19.5487 8.33459 19.7479 8.43013 19.9701C8.55949 20.278 8.77617 20.5412 9.05341 20.7274C9.33066 20.9135 9.65634 21.0144 9.99026 21.0176C10.3242 21.0208 10.6517 20.9261 10.9325 20.7453C11.2132 20.5645 11.4349 20.3055 11.5701 20.0001ZM7.25013 7.00013C7.49735 7.00013 7.73903 7.07344 7.94459 7.21079C8.15015 7.34815 8.31037 7.54337 8.40497 7.77178C8.49958 8.00018 8.52434 8.25152 8.47611 8.49399C8.42788 8.73647 8.30883 8.9592 8.13401 9.13401C7.95919 9.30883 7.73647 9.42788 7.49399 9.47611C7.25151 9.52434 7.00018 9.49959 6.77177 9.40498C6.54336 9.31037 6.34814 9.15016 6.21079 8.94459C6.07344 8.73903 6.00013 8.49736 6.00013 8.25013C6.00013 7.91861 6.13182 7.60067 6.36624 7.36625C6.60066 7.13183 6.91861 7.00013 7.25013 7.00013ZM12.7501 15.0001C12.5029 15.0001 12.2612 14.9268 12.0557 14.7895C11.8501 14.6521 11.6899 14.4569 11.5953 14.2285C11.5007 14.0001 11.4759 13.7487 11.5241 13.5063C11.5724 13.2638 11.6914 13.0411 11.8662 12.8662C12.0411 12.6914 12.2638 12.5724 12.5063 12.5241C12.7487 12.4759 13.0001 12.5007 13.2285 12.5953C13.4569 12.6899 13.6521 12.8501 13.7895 13.0557C13.9268 13.2612 14.0001 13.5029 14.0001 13.7501C14.0001 14.0817 13.8684 14.3996 13.634 14.634C13.3996 14.8684 13.0816 15.0001 12.7501 15.0001ZM13.7501 8.71013L7.75013 14.7101C7.65716 14.8039 7.54656 14.8783 7.4247 14.929C7.30284 14.9798 7.17214 15.0059 7.04013 15.0059C6.90811 15.0059 6.77741 14.9798 6.65555 14.929C6.53369 14.8783 6.42309 14.8039 6.33013 14.7101C6.2364 14.6172 6.162 14.5066 6.11123 14.3847C6.06047 14.2628 6.03433 14.1321 6.03433 14.0001C6.03433 13.8681 6.06047 13.7374 6.11123 13.6156C6.162 13.4937 6.2364 13.3831 6.33013 13.2901L12.3301 7.29013C12.5184 7.10183 12.7738 6.99604 13.0401 6.99604C13.3064 6.99604 13.5618 7.10183 13.7501 7.29013C13.9384 7.47843 14.0442 7.73383 14.0442 8.00013C14.0442 8.26643 13.9384 8.52183 13.7501 8.71013Z" fill="#FA7D19"/>
</svg>
